<svg width="800" height="1000" viewBox="0 0 800 1000" xmlns="http://www.w3.org/2000/svg">
  <defs>
    <linearGradient id="bg" x1="0" y1="0" x2="1" y2="1">
      <stop offset="0%" stop-color="#1b1024" />
      <stop offset="40%" stop-color="#30152f" />
      <stop offset="100%" stop-color="#0a050f" />
    </linearGradient>
    <radialGradient id="glow" cx="50%" cy="0%" r="70%">
      <stop offset="0%" stop-color="#ff9ac5" stop-opacity="0.85" />
      <stop offset="55%" stop-color="#ff4b7a" stop-opacity="0.0" />
      <stop offset="100%" stop-color="#000000" stop-opacity="0" />
    </radialGradient>
  </defs>
  <rect width="800" height="1000" fill="url(#bg)" />
  <rect width="800" height="1000" fill="url(#glow)" />
  <g transform="translate(155 210)" fill="none" stroke-linecap="round">
    <path
      d="M180 160c-36-52-120-40-136 25-12 48 16 96 116 162 7 5 16 5 23 0 100-66 128-114 116-162-16-65-100-77-136-25z"
      stroke="#ffbcd9"
      stroke-width="5"
    />
    <path
      d="M330 160c-36-52-120-40-136 25-12 48 16 96 116 162 7 5 16 5 23 0 100-66 128-114 116-162-16-65-100-77-136-25z"
      stroke="#ffe1f0"
      stroke-width="4"
      opacity="0.9"
    />
  </g>
  <circle cx="110" cy="140" r="6" fill="#ffb6d5" opacity="0.8" />
  <circle cx="690" cy="190" r="9" fill="#ffc0e0" opacity="0.75" />
  <circle cx="140" cy="840" r="8" fill="#ff80aa" opacity="0.78" />
  <circle cx="710" cy="760" r="6" fill="#ff9fc8" opacity="0.65" />
  <path
    d="M120 910h560"
    stroke="#ffffff"
    stroke-opacity="0.12"
    stroke-width="1.5"
    stroke-linecap="round"
  />
</svg>

